<svg xmlns="http://www.w3.org/2000/svg" version="1.1" width="1024" height="1024">
<rect x="0" y="0" width="1024" height="1024" fill="#463b39" />
<g transform="scale(4.000000) translate(0.5 0.5)">
<polygon fill="#f5e3c2" fill-opacity="0.584314" points="-5,213 140,-16 111,117" />
<polygon fill="#070000" fill-opacity="0.725490" points="175,271 271,247 196,7" />
<polygon fill="#000000" fill-opacity="0.611765" points="13,271 119,271 106,87" />
<polygon fill="#687fa1" fill-opacity="0.788235" points="66,10 271,22 192,-16" />
<polygon fill="#fffcd0" fill-opacity="0.345098" points="98,85 -16,161 86,156" />
<polygon fill="#875c54" fill-opacity="0.643137" points="201,192 134,264 100,54" />
<polygon fill="#1d100a" fill-opacity="0.690196" points="151,10 267,30 211,167" />
<polygon fill="#737070" fill-opacity="0.878431" points="-16,188 2,267 53,101" />
<polygon fill="#ffe5bb" fill-opacity="0.317647" points="104,26 88,71 186,74" />
<polygon fill="#607597" fill-opacity="0.917647" points="145,18 93,-16 -16,4" />
<polygon fill="#00040c" fill-opacity="0.545098" points="33,183 190,264 2,271" />
<polygon fill="#53545b" fill-opacity="0.615686" points="54,136 14,64 96,58" />
<polygon fill="#00030f" fill-opacity="0.447059" points="204,87 92,100 103,71" />
<polygon fill="#f2d1bd" fill-opacity="0.584314" points="113,143 108,99 133,150" />
<polygon fill="#fff8d6" fill-opacity="0.654902" points="95,91 28,158 65,150" />
<polygon fill="#fbe8c3" fill-opacity="0.439216" points="105,33 80,105 149,9" />
<polygon fill="#0a0709" fill-opacity="0.823529" points="146,255 271,145 268,271" />
<polygon fill="#754435" fill-opacity="0.780392" points="106,167 183,93 166,223" />
<polygon fill="#6d768f" fill-opacity="0.545098" points="144,255 127,235 204,177" />
<polygon fill="#000600" fill-opacity="0.337255" points="80,66 116,10 -14,43" />
<polygon fill="#191b26" fill-opacity="0.513725" points="-16,187 24,179 -10,262" />
<polygon fill="#d9d7c8" fill-opacity="0.537255" points="9,257 -2,244 15,208" />
<polygon fill="#5e7497" fill-opacity="0.788235" points="194,19 265,23 250,-16" />
<polygon fill="#3e0000" fill-opacity="0.219608" points="124,29 223,32 145,132" />
<polygon fill="#ffffff" fill-opacity="0.474510" points="35,178 22,204 27,177" />
<polygon fill="#a2685f" fill-opacity="0.654902" points="127,139 139,80 111,119" />
<polygon fill="#b09e90" fill-opacity="0.349020" points="85,161 -16,139 8,185" />
<polygon fill="#06060a" fill-opacity="0.458824" points="15,214 138,259 88,141" />
<polygon fill="#5c5b6c" fill-opacity="0.556863" points="140,252 107,201 113,141" />
<polygon fill="#aeadc8" fill-opacity="0.384314" points="23,81 51,83 28,56" />
<polygon fill="#eca256" fill-opacity="0.427451" points="98,97 92,137 59,154" />
<polygon fill="#11100b" fill-opacity="0.462745" points="120,37 174,11 271,59" />
<polygon fill="#200b00" fill-opacity="0.423529" points="190,68 271,178 170,184" />
<polygon fill="#9b5a4b" fill-opacity="0.521569" points="123,38 184,58 133,81" />
<polygon fill="#2c1101" fill-opacity="0.529412" points="100,96 87,115 120,160" />
<polygon fill="#070909" fill-opacity="0.525490" points="158,110 128,78 210,78" />
<polygon fill="#363939" fill-opacity="0.611765" points="-16,143 22,114 53,133" />
<polygon fill="#f8edd6" fill-opacity="0.537255" points="125,26 98,46 117,73" />
<polygon fill="#5e5b4f" fill-opacity="0.576471" points="101,39 114,13 134,14" />
<polygon fill="#734236" fill-opacity="0.694118" points="168,233 184,115 131,101" />
<polygon fill="#bdc1d5" fill-opacity="0.509804" points="107,108 112,85 119,109" />
<polygon fill="#715a42" fill-opacity="0.478431" points="50,166 79,165 80,142" />
<polygon fill="#21272c" fill-opacity="0.396078" points="118,15 -16,80 -16,4" />
<polygon fill="#090b0f" fill-opacity="0.529412" points="12,225 49,173 17,271" />
<polygon fill="#6f6a73" fill-opacity="0.537255" points="74,27 31,19 35,32" />
<polygon fill="#e2b584" fill-opacity="0.411765" points="174,10 129,20 139,8" />
<polygon fill="#908ea0" fill-opacity="0.572549" points="165,214 194,178 196,194" />
<polygon fill="#373d4e" fill-opacity="0.584314" points="100,95 127,73 96,72" />
<polygon fill="#f8e3ca" fill-opacity="0.513725" points="112,134 123,154 122,125" />
<polygon fill="#ffeabf" fill-opacity="0.411765" points="24,189 56,166 47,158" />
<polygon fill="#fffff2" fill-opacity="0.345098" points="85,144 83,97 65,131" />
<polygon fill="#25170e" fill-opacity="0.662745" points="175,50 256,192 220,30" />
<polygon fill="#ffeeec" fill-opacity="0.486275" points="127,67 109,74 123,48" />
<polygon fill="#434554" fill-opacity="0.560784" points="201,200 165,237 153,215" />
<polygon fill="#bfb1a6" fill-opacity="0.592157" points="42,156 -11,156 -16,140" />
<polygon fill="#7f7d8b" fill-opacity="0.545098" points="57,131 69,112 34,115" />
<polygon fill="#3a3329" fill-opacity="0.560784" points="51,158 73,160 65,173" />
<polygon fill="#494844" fill-opacity="0.439216" points="271,44 229,76 263,188" />
<polygon fill="#fffff9" fill-opacity="0.525490" points="130,28 137,14 113,35" />
<polygon fill="#2a3135" fill-opacity="0.333333" points="77,66 9,102 68,115" />
<polygon fill="#0d0700" fill-opacity="0.494118" points="-16,205 -16,257 14,206" />
<polygon fill="#ac875b" fill-opacity="0.580392" points="110,46 133,25 122,43" />
<polygon fill="#27384d" fill-opacity="0.450980" points="203,19 263,21 214,37" />
<polygon fill="#c28d55" fill-opacity="0.505882" points="89,137 85,103 97,92" />
<polygon fill="#fffed7" fill-opacity="0.490196" points="98,80 90,102 78,91" />
<polygon fill="#a4a9bc" fill-opacity="0.262745" points="-16,189 19,193 21,211" />
<polygon fill="#733527" fill-opacity="0.596078" points="113,110 116,129 122,103" />
<polygon fill="#7b4438" fill-opacity="0.556863" points="184,103 127,120 126,207" />
<polygon fill="#120905" fill-opacity="0.458824" points="164,17 134,21 208,76" />
<polygon fill="#000001" fill-opacity="0.537255" points="199,215 228,190 201,129" />
<polygon fill="#b69a86" fill-opacity="0.478431" points="248,144 271,172 270,129" />
<polygon fill="#665c54" fill-opacity="0.435294" points="-16,145 68,118 29,148" />
<polygon fill="#000000" fill-opacity="0.431373" points="62,199 109,224 107,133" />
<polygon fill="#7d94bd" fill-opacity="0.325490" points="25,77 64,74 67,85" />
<polygon fill="#ebd7db" fill-opacity="0.447059" points="130,101 122,108 133,87" />
<polygon fill="#938f9f" fill-opacity="0.486275" points="125,182 112,170 127,202" />
<polygon fill="#a78855" fill-opacity="0.356863" points="64,105 104,65 96,41" />
<polygon fill="#20140d" fill-opacity="0.572549" points="122,153 119,167 110,138" />
<polygon fill="#5c5e69" fill-opacity="0.333333" points="20,194 42,155 -5,160" />
<polygon fill="#724333" fill-opacity="0.478431" points="123,36 180,53 181,81" />
<polygon fill="#6c4421" fill-opacity="0.364706" points="161,9 131,21 198,18" />
<polygon fill="#51311e" fill-opacity="0.439216" points="179,201 190,115 160,160" />
<polygon fill="#8097bd" fill-opacity="0.470588" points="106,76 100,84 115,83" />
<polygon fill="#211d1e" fill-opacity="0.235294" points="165,216 3,271 16,218" />
<polygon fill="#fffced" fill-opacity="0.443137" points="107,103 115,103 111,127" />
<polygon fill="#000003" fill-opacity="0.439216" points="112,77 120,94 127,73" />
<polygon fill="#080709" fill-opacity="0.905882" points="124,271 163,238 246,261" />
<polygon fill="#566f9b" fill-opacity="0.376471" points="-16,8 30,-16 84,13" />
<polygon fill="#683d3c" fill-opacity="0.376471" points="123,110 111,122 114,89" />
<polygon fill="#1c1813" fill-opacity="0.533333" points="104,17 55,13 92,52" />
<polygon fill="#84859d" fill-opacity="0.396078" points="176,229 143,222 144,245" />
<polygon fill="#0a0d11" fill-opacity="0.478431" points="12,223 35,181 64,171" />
<polygon fill="#272324" fill-opacity="0.498039" points="98,80 101,106 111,102" />
<polygon fill="#814540" fill-opacity="0.462745" points="147,88 129,126 132,86" />
<polygon fill="#0e0404" fill-opacity="0.564706" points="146,110 176,103 142,90" />
<polygon fill="#282629" fill-opacity="0.611765" points="2,271 2,245 -12,244" />
<polygon fill="#2b261f" fill-opacity="0.564706" points="-16,20 39,31 14,75" />
<polygon fill="#031219" fill-opacity="0.243137" points="213,30 271,139 271,19" />
<polygon fill="#874a40" fill-opacity="0.450980" points="182,99 119,137 167,152" />
<polygon fill="#8b7379" fill-opacity="0.525490" points="122,209 121,191 142,230" />
<polygon fill="#6781a6" fill-opacity="0.474510" points="40,-16 103,14 172,8" />
<polygon fill="#d2a770" fill-opacity="0.470588" points="91,73 107,73 118,58" />
<polygon fill="#2f2f36" fill-opacity="0.470588" points="91,65 42,95 71,91" />
<polygon fill="#e0dbd1" fill-opacity="0.521569" points="13,229 12,216 -1,244" />
<polygon fill="#5d2d09" fill-opacity="0.180392" points="234,81 233,186 271,220" />
<polygon fill="#aa776a" fill-opacity="0.423529" points="142,79 125,72 124,34" />
<polygon fill="#000000" fill-opacity="0.517647" points="137,243 139,233 143,243" />
<polygon fill="#e8e3d5" fill-opacity="0.458824" points="15,219 6,227 15,207" />
<polygon fill="#f0c486" fill-opacity="0.470588" points="76,132 82,146 93,128" />
<polygon fill="#000000" fill-opacity="0.541176" points="192,132 210,130 185,186" />
<polygon fill="#827160" fill-opacity="0.462745" points="65,170 79,162 75,143" />
<polygon fill="#fffeeb" fill-opacity="0.517647" points="51,131 62,147 44,157" />
<polygon fill="#f5edd6" fill-opacity="0.415686" points="96,48 99,63 130,25" />
<polygon fill="#724736" fill-opacity="0.584314" points="119,151 177,197 141,228" />
<polygon fill="#fdf3e1" fill-opacity="0.537255" points="114,140 111,124 123,145" />
<polygon fill="#c4b594" fill-opacity="0.537255" points="109,27 103,31 105,47" />
<polygon fill="#562427" fill-opacity="0.580392" points="160,122 123,123 150,130" />
<polygon fill="#945f54" fill-opacity="0.568627" points="19,64 33,56 42,69" />
<polygon fill="#968ea0" fill-opacity="0.501961" points="147,223 156,228 128,242" />
<polygon fill="#50627d" fill-opacity="0.603922" points="238,9 214,-16 127,0" />
<polygon fill="#311903" fill-opacity="0.384314" points="117,174 129,184 117,149" />
<polygon fill="#292d2e" fill-opacity="0.513725" points="13,82 29,133 37,87" />
<polygon fill="#5a3d26" fill-opacity="0.447059" points="87,72 94,59 41,60" />
<polygon fill="#a2a09f" fill-opacity="0.384314" points="15,179 45,169 -16,172" />
<polygon fill="#6a3624" fill-opacity="0.478431" points="20,113 -16,121 9,84" />
<polygon fill="#4c4f4c" fill-opacity="0.486275" points="56,191 65,170 52,186" />
<polygon fill="#504c55" fill-opacity="0.509804" points="107,162 111,182 115,142" />
<polygon fill="#4d2c1f" fill-opacity="0.431373" points="166,45 183,108 183,64" />
<polygon fill="#bcab98" fill-opacity="0.411765" points="35,154 9,152 45,144" />
<polygon fill="#0b0505" fill-opacity="0.466667" points="105,122 74,170 113,143" />
<polygon fill="#a07e51" fill-opacity="0.509804" points="117,44 111,48 114,51" />
<polygon fill="#4f3624" fill-opacity="0.431373" points="184,150 126,155 150,168" />
<polygon fill="#1a181f" fill-opacity="0.392157" points="113,219 136,223 103,193" />
<polygon fill="#d4d1c1" fill-opacity="0.501961" points="25,194 22,205 14,212" />
<polygon fill="#0a090c" fill-opacity="0.670588" points="107,202 103,266 147,271" />
<polygon fill="#b2897a" fill-opacity="0.556863" points="131,113 124,107 112,137" />
<polygon fill="#45484d" fill-opacity="0.403922" points="-16,182 28,178 21,200" />
<polygon fill="#fffade" fill-opacity="0.564706" points="69,114 65,142 90,92" />
<polygon fill="#16161a" fill-opacity="0.749020" points="73,267 17,240 17,209" />
<polygon fill="#17201d" fill-opacity="0.443137" points="-11,232 7,224 -6,250" />
<polygon fill="#8f8794" fill-opacity="0.439216" points="185,203 159,217 196,181" />
<polygon fill="#463b30" fill-opacity="0.505882" points="51,160 59,169 87,157" />
<polygon fill="#e7e9e2" fill-opacity="0.411765" points="27,180 23,199 37,174" />
<polygon fill="#a07142" fill-opacity="0.443137" points="67,139 80,147 88,142" />
<polygon fill="#1e232d" fill-opacity="0.501961" points="244,219 212,221 246,205" />
<polygon fill="#323038" fill-opacity="0.498039" points="168,218 202,193 175,229" />
<polygon fill="#2f3337" fill-opacity="0.482353" points="126,17 116,15 117,24" />
<polygon fill="#885147" fill-opacity="0.533333" points="133,66 181,79 154,43" />
<polygon fill="#6d677c" fill-opacity="0.525490" points="137,250 119,220 131,228" />
<polygon fill="#d0b690" fill-opacity="0.556863" points="81,84 79,103 100,68" />
<polygon fill="#6e8caf" fill-opacity="0.235294" points="271,-9 271,22 175,12" />
<polygon fill="#221917" fill-opacity="0.592157" points="161,11 199,20 225,47" />
<polygon fill="#848795" fill-opacity="0.403922" points="55,112 30,117 60,129" />
<polygon fill="#3e352e" fill-opacity="0.615686" points="241,53 260,60 236,103" />
<polygon fill="#2a2c32" fill-opacity="0.411765" points="14,78 32,70 -16,46" />
<polygon fill="#525257" fill-opacity="0.419608" points="57,33 34,16 78,26" />
<polygon fill="#613829" fill-opacity="0.517647" points="126,202 129,173 139,226" />
<polygon fill="#343336" fill-opacity="0.423529" points="54,131 12,137 -16,111" />
<polygon fill="#5e5b59" fill-opacity="0.556863" points="16,271 8,233 6,269" />
<polygon fill="#976a42" fill-opacity="0.478431" points="94,127 97,114 79,132" />
<polygon fill="#413f49" fill-opacity="0.498039" points="117,209 123,190 106,172" />
<polygon fill="#0e0707" fill-opacity="0.486275" points="240,151 187,51 185,93" />
<polygon fill="#fdcc8b" fill-opacity="0.435294" points="42,148 40,170 55,167" />
<polygon fill="#05070a" fill-opacity="0.505882" points="181,81 131,84 154,75" />
<polygon fill="#dbcbac" fill-opacity="0.533333" points="129,33 136,25 131,27" />
<polygon fill="#321f12" fill-opacity="0.482353" points="225,49 203,84 245,147" />
<polygon fill="#623b1e" fill-opacity="0.521569" points="86,120 92,116 92,106" />
<polygon fill="#2e2921" fill-opacity="0.619608" points="53,31 -16,28 49,65" />
<polygon fill="#726044" fill-opacity="0.529412" points="79,80 74,69 102,52" />
<polygon fill="#caab7c" fill-opacity="0.450980" points="66,145 56,158 61,160" />
<polygon fill="#766b60" fill-opacity="0.552941" points="35,149 40,134 -7,140" />
<polygon fill="#8089ad" fill-opacity="0.517647" points="111,101 120,96 108,95" />
<polygon fill="#444845" fill-opacity="0.486275" points="21,234 14,217 13,229" />
<polygon fill="#131417" fill-opacity="0.470588" points="55,177 0,269 64,271" />
<polygon fill="#ffe3a2" fill-opacity="0.525490" points="91,104 76,139 79,117" />
<polygon fill="#120e0f" fill-opacity="0.490196" points="108,73 125,84 130,77" />
<polygon fill="#121c27" fill-opacity="0.415686" points="51,12 -8,9 17,20" />
<polygon fill="#4a341e" fill-opacity="0.458824" points="125,42 147,41 127,31" />
<polygon fill="#e9d2c4" fill-opacity="0.529412" points="119,132 124,125 124,132" />
<polygon fill="#443f43" fill-opacity="0.541176" points="189,175 200,191 199,180" />
<polygon fill="#272423" fill-opacity="0.533333" points="15,204 6,201 -2,234" />
<polygon fill="#97afcf" fill-opacity="0.301961" points="34,85 25,73 44,77" />
<polygon fill="#221919" fill-opacity="0.556863" points="96,95 98,85 111,88" />
<polygon fill="#4f4c45" fill-opacity="0.180392" points="80,100 56,113 28,52" />
<polygon fill="#412d24" fill-opacity="0.450980" points="175,188 194,177 167,208" />
<polygon fill="#773936" fill-opacity="0.431373" points="163,109 137,143 129,102" />
<polygon fill="#f4deb9" fill-opacity="0.470588" points="96,62 108,59 87,73" />
<polygon fill="#0e1934" fill-opacity="0.207843" points="53,23 106,12 35,7" />
<polygon fill="#fffce1" fill-opacity="0.482353" points="87,91 93,96 95,76" />
<polygon fill="#231a16" fill-opacity="0.486275" points="80,155 91,162 95,131" />
<polygon fill="#8d584e" fill-opacity="0.392157" points="160,52 135,79 118,71" />
<polygon fill="#6c5f55" fill-opacity="0.380392" points="271,109 252,145 241,135" />
<polygon fill="#f1d2ab" fill-opacity="0.294118" points="149,10 153,8 155,18" />
<polygon fill="#0a0502" fill-opacity="0.466667" points="151,20 142,45 168,33" />
<polygon fill="#fffff7" fill-opacity="0.521569" points="130,20 114,32 115,41" />
<polygon fill="#595650" fill-opacity="0.431373" points="41,208 51,193 44,199" />
<polygon fill="#5c565f" fill-opacity="0.521569" points="110,192 109,203 130,179" />
<polygon fill="#25120a" fill-opacity="0.529412" points="246,194 207,83 212,173" />
<polygon fill="#252b22" fill-opacity="0.431373" points="18,203 19,195 26,190" />
<polygon fill="#d4ac79" fill-opacity="0.509804" points="87,101 94,108 94,100" />
</g>
</svg>